<?xml version="1.0" encoding="utf-8"?>
<!-- Generator: Adobe Illustrator 19.2.0, SVG Export Plug-In . SVG Version: 6.00 Build 0)  -->
<svg version="1.1" id="Capa_1" xmlns="http://www.w3.org/2000/svg" xmlns:xlink="http://www.w3.org/1999/xlink" x="0px" y="0px"
	 viewBox="0 0 1547 492" style="enable-background:new 0 0 1547 492;" xml:space="preserve">
<style type="text/css">
	.st0{fill:#FF0066;}
	.st1{fill:#FFFFFF;stroke:#FF0066;stroke-width:8.0946;stroke-miterlimit:10;}
	.st2{fill:#FFFFFF;}
	.st3{fill:none;stroke:#000000;stroke-width:1.4171;stroke-miterlimit:10;}
	.st4{fill:#CCCCCC;}
	.st5{fill:#999999;}
	.st6{fill:#E6E6E6;}
	.st7{fill:#EC1651;}
	.st8{fill:#F2F2F2;}
	.st9{fill:#4D4D4D;}
	.st10{fill:#B3B3B3;}
	.st11{opacity:0.2;fill:#FF0066;}
	.st12{opacity:0.4;fill:#FF0066;}
	.st13{opacity:0.6;fill:#FF0066;}
	.st14{opacity:0.8;fill:#FF0066;}
	.st15{fill:#706F6F;}
</style>
<g>
	<g>
		<path class="st0" d="M590.4,238c0,5.4,0,12.9,0,22.6c0,9.7,0,20.4-0.1,32c-0.1,11.7-0.2,23.8-0.3,36.5
			c-0.1,12.6-0.2,24.8-0.3,36.6c-0.1,11.8-0.1,22.4-0.1,32c0,9.6,0,17.2,0,22.7h-42.5c0-5.6,0-13.1,0-22.7c0-9.6,0-20.3,0.1-32
			c0.1-11.7,0.2-24,0.3-36.6c0.1-12.6,0.2-24.8,0.3-36.5c0.1-11.7,0.1-22.3,0.1-31.9c0-9.6,0-17.2,0-22.7H590.4z"/>
		<path class="st0" d="M610.1,434.2c-1.4-7.2-2.5-15.3-3.2-24.5c-0.7-9.1-1.1-19.4-1.1-30.7c0-49.1,5.4-99.8,16.1-152
			c18.1,0,34.5,1.8,49.1,5.4c14.6,3.6,27.1,8.8,37.5,15.6c10.4,6.8,18.4,15.2,23.9,25.2c5.6,10,8.3,21.3,8.3,34
			c0,16.5-3.8,31.9-11.3,46.1c-7.5,14.3-17.5,26.9-29.7,37.9c-12.3,11-26.2,20.2-41.8,27.6C642.4,426.2,626.4,431.3,610.1,434.2z
			 M648.8,377.9c5-2.9,10-7.1,15.1-12.8c5-5.7,9.6-11.8,13.7-18.6c4.1-6.7,7.5-13.6,10.1-20.7c2.6-7.1,3.9-13.4,3.9-19
			c0-18.8-11.6-30.7-34.7-35.5C651.5,297.2,648.8,332.7,648.8,377.9z"/>
		<path class="st0" d="M899.6,229.1c-1.1,3.1-1.8,6.4-2.3,10.1c-0.5,3.7-0.7,6.9-0.7,9.6c3.9-6.6,9-11.5,15.2-14.7
			c6.2-3.1,13.1-4.7,20.6-4.7c17.9,0,31.7,6.1,41.3,18.2c9.6,12.1,14.4,30.5,14.4,55.3c0,39.3-9.7,82.7-29.1,130.2l-39.6-16.1
			c3.4-8.1,6.7-17.5,10-28.3c3.2-10.8,6.1-21.6,8.6-32.6c2.5-10.9,4.5-21.4,6.1-31.3c1.5-10,2.3-18.1,2.3-24.4
			c0-18.8-5.1-28.3-15.3-28.3c-11.7,0-20.6,6.6-26.9,19.8c-6.3,13.2-9.4,31.1-9.4,53.7c0,9.2,0.8,19.6,2.6,31.5
			c1.7,11.8,4.1,23.7,7.1,35.5L863,427.2c-3.4-16.1-5.9-33.5-7.5-52.2c-1.6-18.7-2.4-38.8-2.4-60.5c0-15.8,0.5-30.1,1.6-42.9
			c1.1-12.8,2.6-24.6,4.6-35.4L899.6,229.1z"/>
		<path class="st0" d="M1143.9,238c0,5.4,0,12.9,0,22.6c0,9.7,0,20.4-0.1,32c-0.1,11.7-0.2,23.8-0.3,36.5
			c-0.1,12.6-0.2,24.8-0.3,36.6c-0.1,11.8-0.1,22.4-0.1,32c0,9.6,0,17.2,0,22.7h-42.5c0-5.6,0-13.1,0-22.7c0-9.6,0-20.3,0.1-32
			c0.1-11.7,0.2-24,0.3-36.6c0.1-12.6,0.2-24.8,0.3-36.5c0.1-11.7,0.1-22.3,0.1-31.9c0-9.6,0-17.2,0-22.7H1143.9z"/>
		<path class="st0" d="M829.9,271.9c-1.4-0.7-4.1-1.1-8.1-1.1c-15.4,0-25.3,13-29.6,39c6.1-0.2,12-0.4,17.8-0.7
			c5.7-0.3,11.4-0.8,17-1.7l4.6,42.8c-6.1,0.7-12.3,1.2-18.7,1.5c-6.4,0.3-13,0.5-20,0.7c5.6,24.2,22.1,36.3,49.5,36.3l4.6,42.5
			c-15.6,0-29.6-2.3-41.8-6.9c-12.3-4.6-22.7-11.2-31.2-19.8c-8.5-8.6-15-19.1-19.4-31.5c-4.4-12.4-6.6-26.3-6.6-41.7
			c0-15.1,1.8-28.9,5.4-41.6c3.6-12.6,8.7-23.5,15.2-32.7c6.5-9.2,14.5-16.3,23.9-21.4c9.4-5.1,20-7.7,31.6-7.7c2,0,3.9,0.1,5.8,0.3
			c1.9,0.2,3.8,0.4,5.8,0.5L829.9,271.9z"/>
		<path class="st0" d="M1086.4,274.9h-25.8c0.4,13.5,0.7,28.2,0.9,44.3c0.3,16.1,0.4,33.9,0.4,53.4v49h-42.5
			c0-71.8-0.5-120.8-1.6-147.2h-21.3v-42.5c2.5,0,6.1,0,10.9,0c4.8,0,10,0,15.7,0.1c5.7,0.1,11.7,0.1,18,0.1c6.3,0,12.3,0,18.2,0.1
			c5.8,0.1,11.1,0.1,15.9,0.1c4.7,0,8.5,0,11.2,0V274.9z"/>
	</g>
	<g>
		<path class="st1" d="M1185.3,227.8c26.5,0,48.4,1.3,65.5,4c17.1,2.7,30.7,7,40.6,12.8c10,5.8,16.9,13.4,20.9,22.6
			c3.9,9.2,5.9,20.4,5.9,33.5c0,17.9-6.6,33.3-19.6,46c-13.1,12.7-33.2,22-60.3,27.7c0.4,8.1,0.6,16,0.8,23.7
			c0.2,7.7,0.3,15.2,0.3,22.3h-42.8c0-16.7-0.2-33.6-0.5-50.9c-0.4-17.2-1-34.1-1.9-50.7c-0.9-16.6-2.1-32.6-3.5-48
			C1189.3,255.4,1187.5,241,1185.3,227.8z M1231.6,270.5c1.4,10.9,2.5,21.6,3.2,32c0.7,10.4,1.3,20,1.6,28.8
			c26.2-6.3,39.3-18.7,39.3-37.1c0-3.4-1.1-6.6-3.4-9.6c-2.2-3-5.3-5.5-9.3-7.5c-3.9-2.1-8.6-3.7-14-4.8
			C1243.7,271.1,1237.9,270.5,1231.6,270.5z"/>
		<path class="st1" d="M1413.2,271.9c-1.4-0.7-4.1-1.1-8.1-1.1c-15.4,0-25.3,13-29.6,39c6.1-0.2,12-0.4,17.8-0.7
			c5.7-0.3,11.4-0.8,17-1.7l4.6,42.8c-6.1,0.7-12.3,1.2-18.7,1.5c-6.4,0.3-13.1,0.5-20,0.7c5.6,24.2,22.1,36.3,49.5,36.3l4.6,42.5
			c-15.6,0-29.6-2.3-41.8-6.9c-12.3-4.6-22.7-11.2-31.2-19.8c-8.5-8.6-15-19.1-19.4-31.5c-4.4-12.4-6.6-26.3-6.6-41.7
			c0-15.1,1.8-28.9,5.4-41.6c3.6-12.6,8.7-23.5,15.2-32.7c6.5-9.2,14.5-16.3,23.9-21.4c9.4-5.1,20-7.7,31.6-7.7c2,0,3.9,0.1,5.8,0.3
			c1.9,0.2,3.8,0.4,5.8,0.5L1413.2,271.9z"/>
		<path class="st1" d="M1527.2,274.9h-25.8c0.4,13.5,0.7,28.2,0.9,44.3c0.3,16.1,0.4,33.9,0.4,53.4v49h-42.5
			c0-71.8-0.5-120.8-1.6-147.2h-21.3v-42.5c2.5,0,6.1,0,10.9,0c4.8,0,10,0,15.7,0.1c5.7,0.1,11.7,0.1,18,0.1c6.3,0,12.3,0,18.2,0.1
			c5.8,0.1,11.1,0.1,15.9,0.1c4.7,0,8.5,0,11.2,0V274.9z"/>
	</g>
</g>
<g>
	<g>
		<path class="st2" d="M83.1,462.8c-14.7,0-26.7-12.1-26.7-26.9V57.3c0-14.8,12-26.9,26.7-26.9h379c14.7,0,26.7,12.1,26.7,26.9
			v378.5c0,14.8-12,26.9-26.7,26.9H83.1z"/>
		<g>
			<path class="st0" d="M462.1,33c13.3,0,24.1,10.9,24.1,24.3v378.5c0,13.4-10.8,24.3-24.1,24.3h-379c-13.3,0-24.1-10.9-24.1-24.3
				V57.3C59,43.9,69.8,33,83.1,33H462.1 M462.1,27.9h-379c-16.1,0-29.2,13.2-29.2,29.5v378.5c0,16.2,13.1,29.5,29.2,29.5h379
				c16.1,0,29.2-13.2,29.2-29.5V57.3C491.3,41.1,478.2,27.9,462.1,27.9L462.1,27.9z"/>
		</g>
	</g>
	<g>
		<g>
			<rect x="81.7" y="58" width="102" height="102.7"/>
			<rect x="96.1" y="72.5" class="st2" width="73.1" height="73.6"/>
			<rect x="111.1" y="87.6" width="43.3" height="43.6"/>
		</g>
		<g>
			<rect x="81.7" y="322.3" width="102" height="102.7"/>
			<rect x="96.1" y="336.8" class="st2" width="73.1" height="73.6"/>
			<rect x="111.1" y="351.9" width="43.3" height="43.6"/>
		</g>
		<g>
			<rect x="345.7" y="58" width="102" height="102.7"/>
			<rect x="360.2" y="72.5" class="st2" width="73.1" height="73.6"/>
			<rect x="375.1" y="87.6" width="43.3" height="43.6"/>
		</g>
		<polygon points="228.7,58.3 243.6,58.3 243.6,87.8 258,87.8 258,72.9 287.3,72.9 287.3,57.8 302.2,57.8 302.2,72.7 287.3,72.9 
			287.3,102.7 316.8,102.7 316.8,116.6 301.9,116.6 301.9,152.5 287.5,152.5 287.5,146.1 272.4,146.1 272.4,160.3 258,160.3 
			258,146.4 243.6,146.4 243.6,152.8 229,152.8 229,146.4 243.6,146.4 243.6,131.5 214.3,131.5 214.3,117.1 199.7,117.1 
			199.7,102.4 228.7,102.4 228.7,87.3 214.3,87.3 214.3,72.9 228.7,72.9 		"/>
		<rect x="272.7" y="116.9" class="st2" width="14.9" height="14.9"/>
		<rect x="257.8" y="87.8" class="st2" width="14.9" height="14.9"/>
		<rect x="316.4" y="131.7" width="15.1" height="21.3"/>
		<polygon points="96.7,175.2 125.5,175.2 125.5,189.8 154.6,189.8 154.6,234.5 168.7,234.5 168.7,248.2 154.8,248.2 154.8,263.5 
			140.6,263.5 140.6,205 125.8,205 125.8,219.1 111.3,219.1 111.3,234 96.5,234 96.5,249.1 82.1,249.1 82.1,234.2 96.5,234 
			96.5,219.1 111.3,219.1 111.3,204.5 96.7,204.5 		"/>
		<rect x="81.6" y="263.5" class="st3" width="29.8" height="14.6"/>
		<polygon points="188.1,275.1 178.4,275.1 178.4,266.6 169.9,266.6 169.9,278.4 154.8,278.4 154.8,292.8 169.9,292.8 169.9,307.5 
			185,307.5 185,292.8 169.9,292.8 169.9,278.4 188.1,278.4 		"/>
		<polygon points="199.4,307.5 217.6,307.5 217.6,314.1 228.5,314.1 228.5,337.2 242.9,337.2 242.9,331.3 257.5,331.3 257.5,337 
			272.4,337 272.4,351.4 242.9,351.4 242.9,366.3 228.5,366.3 228.5,351.6 214.1,351.6 214.1,322.3 199.4,322.3 		"/>
		<polygon points="228.5,366.3 214.3,366.3 214.3,381.4 199.2,381.4 199.2,409.7 213.6,409.7 213.6,424.1 228.3,424.1 228.3,409.7 
			272.7,409.7 272.7,395.8 257.8,395.8 257.8,380.9 287.1,380.9 287.1,424.4 301.7,424.4 301.7,380.9 331.5,380.9 331.5,395.3 
			345.6,395.3 345.6,410.2 360.5,410.2 360.5,381.1 376.1,381.1 376.1,410 389.6,410 389.6,424.6 404,424.6 404,395.6 448.6,395.6 
			448.6,381.1 433.7,381.1 433.7,366.3 448.4,366.3 448.4,322.3 434,322.3 434,336.7 419.3,336.7 419.3,381.4 404.9,381.4 
			404,395.6 389.6,395.6 389.6,366.5 404,366.5 404,337.2 390,337.2 390,307.5 404.2,307.5 404.2,278.6 419.3,278.6 419.3,263.8 
			404.7,263.8 404.7,248.9 389.8,248.9 389.8,263.5 374.9,263.5 374.9,249.1 362.2,249.1 362.2,266.6 351.8,266.6 351.8,274.6 
			342.3,274.6 342.3,278.2 360.8,278.2 360.8,293.1 332.4,293.1 332.4,296.1 322.7,296.1 322.7,302 313,302 313,314.3 301.9,314.3 
			301.9,322.1 316.1,322.1 316.1,337.5 287.3,337.5 287.3,351.6 301.9,351.6 301.9,366.2 287.3,366.2 287.3,351.6 272.4,351.6 
			272.4,337 257.5,337 257.5,331.3 242.9,331.3 242.9,337.2 228.5,337.2 228.5,314.1 217.6,314.1 217.6,307.5 199.4,307.5 
			199.4,322.3 214.1,322.3 214.1,351.6 228.5,351.6 		"/>
		<rect x="243.3" y="351.6" class="st2" width="29.2" height="14.7"/>
		<rect x="243.1" y="351.6" class="st2" width="29.4" height="14.5"/>
		<rect x="228.5" y="366.3" class="st2" width="15" height="14.9"/>
		<rect x="331.5" y="307.6" class="st2" width="43.9" height="43.6"/>
		<rect x="345.6" y="322.1" width="14.9" height="14.9"/>
		<rect x="345.6" y="366.4" class="st2" width="14.9" height="14.5"/>
		<rect x="316.2" y="395.8" width="14.9" height="29"/>
		<rect x="434.2" y="410.7" width="14.2" height="14.2"/>
		<rect x="375.8" y="278.5" class="st2" width="14.2" height="14.2"/>
		<polygon points="352.4,176.1 375,176.1 375,205.2 389.9,205.2 389.9,220.4 404.8,220.4 404.8,233.9 375,233.9 375,205.2 
			362.6,205.2 362.6,182.2 352.4,182.2 		"/>
		<polygon points="419.3,190.3 448,190.3 448,234.2 420,234.2 420,220.1 434.2,220.1 434.2,204.8 419.3,204.8 		"/>
		<polygon points="433.9,249.5 448,249.5 448,292.3 433.9,292.3 433.9,307.6 419.7,307.6 419.7,278.6 433.9,278.6 		"/>
		<rect x="405.2" y="307.6" width="13.8" height="29.4"/>
		<rect x="389.9" y="175.8" width="14.5" height="14.5"/>
		<rect x="169.6" y="175.1" width="8.9" height="7.1"/>
		<rect x="80.4" y="262.8" width="31.6" height="16.1"/>
		<rect x="80.4" y="292.3" width="31.6" height="16.1"/>
		<polygon class="st0" points="274.4,197.7 254.2,197.7 254.2,178.6 235.1,178.6 235.1,168.2 216.3,168.2 216.3,178.6 196.8,178.6 
			196.8,197.7 186.9,197.7 186.9,246.3 196.5,246.3 196.5,255.9 206.4,255.9 206.4,265.4 216.3,265.4 216.3,275.3 225.2,275.3 
			225.2,284.9 235.5,284.9 235.5,294.5 244.7,294.5 244.7,304.7 254.6,304.7 254.6,314.8 274.1,314.8 274.1,304.4 283.6,304.4 
			283.6,295.2 293.9,295.2 293.9,284.9 302.8,284.9 302.8,275.3 312.3,275.3 312.3,265.4 322.3,265.4 322.3,256.2 332.2,256.2 
			332.2,247 341.7,247 341.7,198.1 332.2,198.1 332.2,178.6 313,178.6 313,168.2 293.9,168.2 293.9,178.6 274.4,178.6 		"/>
		<g>
			<path d="M441,441.6h-4.4H394h-4.4h-43.5h-4.4l0.1-4.6c0-0.7,0-1.5,0.1-2.2c-3.5-1.1-6.7-3-9.5-5.4c-2.9,0.9-5.9,1.3-8.9,1.3
				c-4.9,0-9.8-1.2-14.3-3.5c-8.7-4.5-15.2-12.6-18-22.8c-3.1-11.1-0.5-26,7.8-44.2c6.3-13.8,7.4-24.5,3.2-31.9
				c-6.2-10.8-22.5-11.5-22.7-11.5l-12.5-0.4l10.1-7.9c4.8-3.8,10.5-5.8,16.5-5.8c4.1,0,8.2,1,11.9,2.9c7.8,4,13.6,11.8,15.8,21.5
				c2.7,11.7,0.4,25.5-6.7,41.1c-8.6,18.9-8,25.5-6.7,30.2c1.5,5.3,4.8,9.4,9.2,11.7c1.8,0.9,3.7,1.5,5.7,1.7
				c-0.3-1.6-0.4-3.2-0.4-4.9v-0.4l0-0.4c0.5-3.5,12.9-86,24.6-126.5c-2.5-4.8-4.9-10-7.2-15.6c-2,1.8-4.4,3.3-7.1,4.3
				c-0.7,0.3-1.4,0.4-2.1,0.4c-10.7,0-19.3-32.4-20.9-38.9c-6.9-27.9-0.6-31.7,1.5-33c4.4-2.7,9.5-8,14.4-13.1
				c8.3-8.7,16.1-16.9,24.2-16.9c3,0,5.7,1.1,8.1,3.3h61.6c2.4-2.2,5.1-3.3,8.1-3.3c8.2,0,16,8.2,24.2,16.9
				c4.9,5.1,9.9,10.4,14.4,13.1c2.1,1.3,8.4,5.1,1.5,33c-1.6,6.5-10.2,38.9-20.9,38.9c-0.7,0-1.4-0.1-2.1-0.4c-2.7-1-5-2.5-7.1-4.3
				c-1.7,4-3.4,7.8-5.1,11.4c13.8,38.8,30.9,126.6,31.7,130.4l0.1,0.5v0.5c0,14.6-10.2,26.8-23.4,29c0,0.4,0,0.9,0,1.3L441,441.6
				L441,441.6z"/>
			<path class="st4" d="M310.6,366c-8.4,18.5-8.8,26.6-6.9,33.4c1.9,6.8,6.2,11.9,11.5,14.6c4.9,2.5,10.6,2.9,15.9,0.9
				c3.6-1.5,7.1-4.1,10.2-8.3c4,0.2,8-0.7,11.5-2.6c0,0,0,0,0,0c-4.7,10.4-11.8,17.1-19.4,20.1c-7.6,3-15.6,2.3-22.3-1.1
				c-7.2-3.7-13.1-10.7-15.8-20c-2.6-9.3-0.8-22.6,7.6-40.9c22.2-48.7-23.3-50-23.3-50c7.3-5.7,16.4-6.3,23.9-2.5
				C315.2,315.7,325.2,333.9,310.6,366z"/>
			<path class="st4" d="M350,431.4c-12.9,0-23.3-11.1-23.3-24.7c0,0,22-147.1,34.9-147.1h57c12.9,0,41.5,147.1,41.5,147.1
				c0,13.7-10.4,24.7-23.3,24.7H350z"/>
			<ellipse cx="410" cy="340.1" rx="11.1" ry="11.8"/>
			<path d="M410.9,299.1c0,13.9,10.6,25.1,23.7,25.1c2.4,0,4.7-0.4,6.9-1.1c-4.5-18.4-9.3-35.9-13.7-48.1
				C418,278.1,410.9,287.7,410.9,299.1z"/>
			<ellipse cx="361.1" cy="333.3" rx="19.1" ry="20.3"/>
			<ellipse cx="392.2" cy="377.3" rx="16.7" ry="17.7"/>
			<path d="M363.1,283.8c0-6-3.7-11-8.9-12.7c-2.3,6.5-4.8,15.3-7.2,25.4c1.1,0.4,2.3,0.5,3.5,0.5
				C357.5,297.1,363.1,291.1,363.1,283.8z"/>
			<path d="M460,406.7c0,0-3.2-16.7-8-38.8c-1.8-0.3-3.7-0.5-5.6-0.5c-18.6,0-33.7,16-33.7,35.8c0,11.5,5.1,21.7,13,28.2h11
				C449.5,431.4,460,420.4,460,406.7z"/>
			<ellipse cx="351.2" cy="404.7" rx="19.1" ry="20.3"/>
			<path class="st5" d="M418.5,259.6h-57c-2.2,0-4.7,4.3-7.3,11.5c5.1,1.7,8.9,6.7,8.9,12.7c0,5.7-3.5,10.6-8.3,12.5
				c8.5,12.2,18.5,20.4,29.9,20.4c9.8,0,18.6-6.1,26.2-15.6c-0.1-0.7-0.1-1.3-0.1-2c0-10.8,6.4-19.9,15.4-23.5
				c0.3-0.7,0.6-1.4,1-2.1C423.9,264.9,420.9,259.6,418.5,259.6z"/>
			<path class="st6" d="M364.9,437h24.7v-46.2c0,0-0.9-6-19-6c-12.6,0-21.3-4.8-21.3-4.8L364.9,437z"/>
			<path class="st6" d="M417.8,437h-24.7v-46.2c0,0,0.9-6,19-6c12.6,0,21.3-4.8,21.3-4.8L417.8,437z"/>
			<path class="st6" d="M388.7,311.1L388.7,311.1c-34.8,0-57-77.4-61.3-106.3c-2-13.8,10.7-30.1,23.8-30.1l74.9,0
				c13.2,0,25.9,16.3,23.8,30.1C445.8,233.7,423.5,311.1,388.7,311.1z"/>
			<path class="st7" d="M405.2,289.5c0,8.1-7.8,10.3-10.7,10.3c-3.5,0-5.1-1.4-5.8-1.4c-0.7,0-2.3,1.4-5.8,1.4
				c-2.9,0-10.7-2.2-10.7-10.3c0-0.9-1.3-0.9-1.3,0.2c0,9.1,7.9,11.9,11.8,11.9c3.7,0,4.5-1.5,6-1.5c1.5,0,2.3,1.5,6,1.5
				c3.8,0,11.8-2.8,11.8-11.9C406.5,288.6,405.2,288.6,405.2,289.5z"/>
			<path d="M399.9,279.4c0,4.8-5,8.6-11.2,8.6c-6.2,0-11.2-3.9-11.2-8.6c0-4.8,4.6-1.4,10.8-1.4C394.4,278,399.9,274.7,399.9,279.4z
				"/>
			<path d="M393.4,218.7c0-23.2-17.8-42-39.7-42c-5.7,0-11.1,1.3-16,3.6c-7,6-11.6,15.8-10.4,24.6c1.8,12.5,7,33.9,15.1,54.2
				c3.6,1.1,7.4,1.7,11.3,1.7C375.7,260.7,393.4,241.9,393.4,218.7z"/>
			<g>
				<ellipse class="st8" cx="361.5" cy="231.5" rx="16.7" ry="17.7"/>
				<ellipse class="st5" cx="361.5" cy="231.5" rx="13.2" ry="14"/>
				<ellipse cx="361.5" cy="231.5" rx="6.7" ry="7.1"/>
				<path class="st2" d="M361.5,217.5c7.1,0,12.9,6,13.2,13.4c1.2-0.7,2.3-1.7,3.2-2.9c-1.5-8-8-14-15.9-14.2
					c-0.9,1.1-1.7,2.4-2.1,3.8C360.3,217.5,360.9,217.5,361.5,217.5z"/>
				<path class="st6" d="M361.5,217.5c-0.6,0-1.1,0.1-1.7,0.1c-0.4,1.1-0.6,2.4-0.6,3.7c0,1.2,0.2,2.3,0.5,3.4
					c0.6-0.2,1.2-0.3,1.8-0.3c3.7,0,6.7,3.2,6.7,7.1c0,0.2,0,0.5,0,0.7c0.5,0.1,1,0.1,1.5,0.1c1.8,0,3.6-0.5,5.1-1.4
					C374.4,223.4,368.6,217.5,361.5,217.5z"/>
				<path class="st9" d="M368.1,232.1c0-0.2,0-0.5,0-0.7c0-3.9-3-7.1-6.7-7.1c-0.6,0-1.2,0.1-1.8,0.3
					C360.9,228.6,364.2,231.5,368.1,232.1z"/>
			</g>
			<ellipse class="st8" cx="416" cy="231.5" rx="16.7" ry="17.7"/>
			<ellipse class="st5" cx="416" cy="231.5" rx="13.2" ry="14"/>
			<ellipse cx="416" cy="231.5" rx="6.7" ry="7.1"/>
			<path class="st8" d="M356.4,174.8c-8.2,10.7-12.4,18.3-13.4,26.1c-2,15.8,10.6,54.4-11.7,63.1c-8.1,3.2-27.1-57.6-17.9-63.2
				C328,191.9,344.9,161.1,356.4,174.8z"/>
			<path class="st8" d="M421.1,174.8c8.2,10.7,12.4,18.3,13.4,26.1c2,15.8-10.6,54.4,11.7,63.1c8.1,3.2,27.1-57.6,17.9-63.2
				C449.4,191.9,432.6,161.1,421.1,174.8z"/>
			<path d="M455.7,236.3c-6.9,0-12.5,5.9-12.5,13.3c0,5.3,2.9,9.8,7.1,12c3.5-4.3,7.5-13.8,10.7-24
				C459.4,236.8,457.6,236.3,455.7,236.3z"/>
			<path d="M331.1,225.6c0-7.3-5.6-13.3-12.5-13.3c-2.7,0-5.3,0.9-7.3,2.5c0.8,7.1,2.9,15.8,5.5,23.9c0.6,0.1,1.2,0.2,1.8,0.2
				C325.5,238.9,331.1,233,331.1,225.6z"/>
			<path class="st10" d="M367.9,414.3c11.9,0,21.6,10.2,21.7,22.7h-43.5C346.3,424.5,355.9,414.3,367.9,414.3z"/>
			<path class="st6" d="M374.9,417.2c8,0,14.6,8.9,14.7,19.8h-29.4C360.3,426.1,366.9,417.2,374.9,417.2z"/>
			<path class="st10" d="M414.9,414.3c-11.9,0-21.6,10.2-21.7,22.7h43.5C436.5,424.5,426.8,414.3,414.9,414.3z"/>
			<path class="st6" d="M407.8,417.2c-8,0-14.6,8.9-14.7,19.8h29.4C422.4,426.1,415.9,417.2,407.8,417.2z"/>
			<path class="st8" d="M416,213.8c9.2,0,16.7,7.9,16.7,17.7c0,2.1-0.4,4.2-1,6.1c0.4,0.1,0.8,0.3,1.1,0.4
				c-0.3-13.5,2.8-28.6,1.7-37.1c-1-7.7-5.2-15.3-13.4-26.1c0.1-0.1,0.1-0.1,0.2-0.2h-35.4c0.9,17.2,7.7,32.8,18.3,44.5
				C407.1,215.8,411.3,213.8,416,213.8z"/>
			<path class="st2" d="M416,213.8c-4.7,0-8.9,2-11.9,5.3c0.8,0.9,1.6,1.7,2.4,2.6c2.4-2.6,5.8-4.3,9.5-4.3c7.3,0,13.2,6.3,13.2,14
				c0,1.7-0.3,3.3-0.8,4.9c1.1,0.4,2.2,0.8,3.2,1.2c0.7-1.9,1-3.9,1-6.1C432.7,221.7,425.2,213.8,416,213.8z"/>
			<path class="st6" d="M416,224.4c3.7,0,6.7,3.2,6.7,7.1c0,0.7-0.1,1.4-0.3,2c2,1,4,2,6,2.8c0.5-1.5,0.8-3.1,0.8-4.9
				c0-7.7-5.9-14-13.2-14c-3.7,0-7.1,1.6-9.5,4.3c1.6,1.6,3.3,3.1,5,4.5C412.7,225.1,414.3,224.4,416,224.4z"/>
			<path class="st9" d="M416,224.4c-1.7,0-3.3,0.7-4.5,1.9c3.4,2.8,7,5.2,10.8,7.2c0.2-0.6,0.3-1.3,0.3-2
				C422.7,227.6,419.7,224.4,416,224.4z"/>
			<g>
				<path class="st2" d="M464.1,200.8c-14.6-8.8-31.4-39.3-42.9-26.2c-0.1,0.1-0.1,0.1-0.2,0.2c8.2,10.7,12.4,18.3,13.4,26.1
					c1.1,8.5-2.1,23.6-1.7,37.1c2.9,0.9,5.8,1.6,8.8,2.2c1.6,0.3,3.2,0.5,4.8,0.6c2.3-2.7,5.6-4.4,9.3-4.4c1.9,0,3.7,0.5,5.3,1.3
					C466.1,221.6,468.9,203.7,464.1,200.8z"/>
				<path class="st2" d="M460.1,240.5c0.3-0.9,0.6-1.8,0.9-2.8C460.7,238.7,460.4,239.6,460.1,240.5L460.1,240.5z"/>
				<path class="st2" d="M461.1,237.6c0,0.1,0,0.1-0.1,0.2C461,237.7,461,237.7,461.1,237.6C461.1,237.6,461.1,237.6,461.1,237.6z"
					/>
			</g>
			<path class="st9" d="M460.1,240.5c0.3-1,0.6-1.9,1-2.9c-1.6-0.8-3.4-1.3-5.3-1.3c-3.7,0-7,1.7-9.3,4.4c2,0.2,3.9,0.3,5.9,0.3
				C455,241,457.6,240.8,460.1,240.5z"/>
			<path class="st9" d="M446.3,193.1c2.4,0,4.6-0.7,6.5-2c-6.1-6.2-12.1-13.2-17.8-17c-0.8,1.7-1.2,3.7-1.2,5.7
				C433.8,187.2,439.4,193.1,446.3,193.1z"/>
		</g>
	</g>
</g>
</svg>
